<svg width="46" height="60" viewBox="0 0 46 60" fill="none" xmlns="http://www.w3.org/2000/svg">
<path d="M17.5269 38.5393C17.7291 38.7422 18.0033 38.8563 18.2892 38.8563C18.5751 38.8563 18.8493 38.7422 19.0514 38.5393L34.5439 22.9915C34.644 22.891 34.7234 22.7717 34.7776 22.6403C34.8317 22.509 34.8596 22.3683 34.8595 22.2262C34.8595 22.0841 34.8315 21.9434 34.7773 21.8121C34.723 21.6808 34.6436 21.5615 34.5434 21.4611C34.4432 21.3606 34.3243 21.281 34.1935 21.2266C34.0626 21.1723 33.9224 21.1443 33.7808 21.1444C33.6392 21.1444 33.499 21.1725 33.3682 21.2269C33.2373 21.2813 33.1185 21.3611 33.0184 21.4616L18.2892 36.2466L12.9805 30.9169C12.7772 30.7198 12.5049 30.6107 12.2222 30.6132C11.9395 30.6157 11.6691 30.7295 11.4692 30.9301C11.2693 31.1307 11.1559 31.402 11.1535 31.6857C11.151 31.9694 11.2597 32.2427 11.4561 32.4468L17.5269 38.5393Z" fill="url(#paint0_linear)"/>
<path fill-rule="evenodd" clip-rule="evenodd" d="M22.4712 59.8604C22.6323 59.952 22.8143 60.0001 22.9995 60C23.1846 60.0001 23.3666 59.952 23.5277 59.8604C37.5993 51.9231 46 39.3929 46 26.3423V10.0447C45.9998 9.77905 45.9023 9.52272 45.7259 9.32459C45.5496 9.12645 45.3067 9.00036 45.0437 8.97034C37.2613 8.26129 29.8699 5.22535 23.8253 0.255131C23.6242 0.0847587 23.3679 -0.00588215 23.1047 0.000296259C22.8416 0.00647467 22.5898 0.109046 22.3968 0.288672C16.6211 5.84855 9.02533 9.10708 1.0296 9.45506C0.752159 9.4676 0.490242 9.5871 0.298433 9.78867C0.106623 9.99023 -0.000280778 10.2583 5.53862e-07 10.537V26.3434C5.53862e-07 39.394 8.3996 51.9231 22.4712 59.8604ZM2.15623 26.3434V11.5573C9.97188 10.9945 17.3714 7.80843 23.1633 2.5121C29.1433 7.20429 36.3013 10.1426 43.8438 11.0012V26.3391C43.8438 38.4343 36.0641 50.1098 22.9995 57.6695C9.93592 50.1119 2.15623 38.4387 2.15623 26.3434Z" fill="url(#paint1_linear)"/>
<defs>
<linearGradient id="paint0_linear" x1="4.8875" y1="9" x2="36.4986" y2="51.5281" gradientUnits="userSpaceOnUse">
<stop stop-color="white"/>
<stop offset="0.409375" stop-color="#7AF0D1"/>
</linearGradient>
<linearGradient id="paint1_linear" x1="4.8875" y1="9" x2="36.4986" y2="51.5281" gradientUnits="userSpaceOnUse">
<stop stop-color="white"/>
<stop offset="0.409375" stop-color="#7AF0D1"/>
</linearGradient>
</defs>
</svg>
