<svg width="42" height="24" viewBox="0 0 42 24" fill="none" xmlns="http://www.w3.org/2000/svg">
<path fill-rule="evenodd" clip-rule="evenodd" d="M42 2C42 3.10457 41.1046 4 40 4H2C0.895431 4 0 3.10457 0 2C0 0.89543 0.895431 0 2 0H40C41.1046 0 42 0.89543 42 2ZM42 12C42 13.1046 41.1046 14 40 14H2C0.89543 14 0 13.1046 0 12C0 10.8954 0.895431 9.99998 2 9.99998H40C41.1046 9.99998 42 10.8954 42 12ZM40 24C41.1046 24 42 23.1046 42 22C42 20.8954 41.1046 20 40 20H2C0.895431 20 0 20.8954 0 22C0 23.1046 0.89543 24 2 24H40Z" fill="white"/>
</svg>
