<svg width="30" height="30" viewBox="0 0 30 30" fill="none" xmlns="http://www.w3.org/2000/svg">
<path d="M26.7004 29.1463C27.4552 29.898 28.679 29.898 29.4339 29.1463C30.1887 28.3946 30.1887 27.1758 29.4339 26.4241L17.8791 14.9174L29.2681 3.57587C30.0229 2.82417 30.0229 1.60542 29.2681 0.853725C28.5132 0.102026 27.2894 0.102026 26.5345 0.853725L15.1456 12.1953L3.46546 0.563774C2.71062 -0.187925 1.48679 -0.187925 0.731946 0.563774C-0.0228942 1.31547 -0.0228943 2.53422 0.731945 3.28592L12.4121 14.9174L0.56613 26.7141C-0.18871 27.4658 -0.18871 28.6845 0.56613 29.4362C1.32097 30.1879 2.54481 30.1879 3.29965 29.4362L15.1456 17.6396L26.7004 29.1463Z" fill="#7AF0D1"/>
</svg>
