<svg width="60" height="60" viewBox="0 0 60 60" fill="none" xmlns="http://www.w3.org/2000/svg">
<path fill-rule="evenodd" clip-rule="evenodd" d="M48.6017 50.6379C47.9651 51.0633 47.2167 51.2903 46.4511 51.2903C45.4248 51.2892 44.4409 50.881 43.7152 50.1553C42.9895 49.4296 42.5813 48.4456 42.5801 47.4194C42.5801 46.6538 42.8072 45.9053 43.2325 45.2688C43.6578 44.6322 44.2624 44.136 44.9697 43.843C45.6771 43.5501 46.4554 43.4734 47.2063 43.6228C47.9572 43.7721 48.6469 44.1408 49.1883 44.6822C49.7296 45.2235 50.0983 45.9133 50.2477 46.6642C50.397 47.4151 50.3204 48.1934 50.0274 48.9007C49.7344 49.608 49.2383 50.2126 48.6017 50.6379ZM47.5264 45.8101C47.2081 45.5974 46.8339 45.4839 46.4511 45.4839C45.938 45.4845 45.446 45.6886 45.0832 46.0514C44.7203 46.4143 44.5162 46.9062 44.5156 47.4194C44.5156 47.8022 44.6291 48.1764 44.8418 48.4947C45.0545 48.8129 45.3567 49.061 45.7104 49.2075C46.0641 49.354 46.4532 49.3923 46.8287 49.3176C47.2041 49.243 47.549 49.0586 47.8197 48.788C48.0904 48.5173 48.2747 48.1724 48.3494 47.797C48.4241 47.4215 48.3857 47.0323 48.2392 46.6787C48.0928 46.325 47.8447 46.0227 47.5264 45.8101Z" fill="url(#paint0_linear)"/>
<path d="M22.2575 22.2581C22.2575 23.327 21.391 24.1935 20.3221 24.1935C19.2531 24.1935 18.3866 23.327 18.3866 22.2581C18.3866 21.1891 19.2531 20.3226 20.3221 20.3226C21.391 20.3226 22.2575 21.1891 22.2575 22.2581Z" fill="url(#paint1_linear)"/>
<path d="M33.8704 22.2581C33.8704 23.327 33.0039 24.1935 31.935 24.1935C30.866 24.1935 29.9995 23.327 29.9995 22.2581C29.9995 21.1891 30.866 20.3226 31.935 20.3226C33.0039 20.3226 33.8704 21.1891 33.8704 22.2581Z" fill="url(#paint2_linear)"/>
<path fill-rule="evenodd" clip-rule="evenodd" d="M59.0317 54.1935H58.064V41.129C58.0634 40.4876 57.8083 39.8726 57.3547 39.419C56.9011 38.9654 56.2861 38.7103 55.6446 38.7097H37.2575C36.7638 38.7105 36.2822 38.8623 35.8772 39.1447C35.4722 39.4271 35.1633 39.8265 34.9918 40.2895L32.9027 39.8577V37.2714C35.7648 35.3528 38.3027 32.4302 39.2656 29.0323H41.6124C41.869 29.0323 42.1152 28.9303 42.2967 28.7488C42.4782 28.5673 42.5801 28.3212 42.5801 28.0645H43.064C43.962 28.0635 44.8229 27.7064 45.4579 27.0714C46.0929 26.4364 46.4501 25.5754 46.4511 24.6774V19.8387C46.4501 18.9407 46.0929 18.0798 45.4579 17.4448C44.8229 16.8098 43.962 16.4526 43.064 16.4516H42.5801C42.5801 16.195 42.4782 15.9488 42.2967 15.7673C42.1152 15.5858 41.869 15.4839 41.6124 15.4839H39.6769V13.5484C39.6769 9.95513 38.2495 6.50905 35.7087 3.96823C33.1678 1.42742 29.7218 0 26.1285 0C22.5353 0 19.0892 1.42742 16.5483 3.96823C14.0075 6.50905 12.5801 9.95513 12.5801 13.5484V15.4839H10.6446C10.388 15.4839 10.1418 15.5858 9.96034 15.7673C9.77885 15.9488 9.67689 16.195 9.67689 16.4516H9.19302C8.29501 16.4526 7.43407 16.8098 6.79908 17.4448C6.16409 18.0798 5.80692 18.9407 5.80592 19.8387V24.6774C5.80692 25.5754 6.16409 26.4364 6.79908 27.0714C7.43407 27.7064 8.29501 28.0635 9.19302 28.0645H9.67689V31.4516C9.67788 32.3496 10.0351 33.2106 10.67 33.8456C11.305 34.4805 12.166 34.8377 13.064 34.8387H16.4523C17.3299 35.751 18.3028 36.5666 19.3543 37.2714V39.8577L14.3196 40.9004L14.3145 40.9014C14.3038 40.9035 14.2925 40.9057 14.2821 40.9089L8.39463 42.3702C6.50186 42.7694 4.75405 43.678 3.33979 44.9978C1.92554 46.3176 0.898549 47.9986 0.369632 49.8593C0.347955 49.9341 0.335763 50.0113 0.333342 50.0891L0.000680727 58.996C-0.0041979 59.126 0.0171862 59.2556 0.0635547 59.3772C0.109923 59.4987 0.180324 59.6097 0.270549 59.7034C0.360774 59.7971 0.46897 59.8717 0.588671 59.9227C0.708371 59.9736 0.837117 59.9999 0.967213 60H57.5801C58.2216 59.9994 58.8366 59.7443 59.2902 59.2907C59.7437 58.8371 59.9988 58.2221 59.9995 57.5806V55.1613C59.9995 54.9046 59.8975 54.6585 59.716 54.477C59.5345 54.2955 59.2884 54.1935 59.0317 54.1935ZM42.5801 18.3871H43.064C43.4489 18.3874 43.8179 18.5405 44.0901 18.8126C44.3622 19.0848 44.5153 19.4538 44.5156 19.8387V24.6774C44.5153 25.0623 44.3622 25.4313 44.0901 25.7035C43.8179 25.9757 43.4489 26.1287 43.064 26.129H42.5801V18.3871ZM39.6769 17.4194H40.6446V27.0968H39.6769V17.4194ZM9.67689 26.129H9.19302C8.80813 26.1287 8.43909 25.9757 8.16693 25.7035C7.89477 25.4313 7.74173 25.0623 7.74141 24.6774V19.8387C7.74173 19.4538 7.89477 19.0848 8.16693 18.8126C8.43909 18.5405 8.80813 18.3874 9.19302 18.3871H9.67689V26.129ZM36.7737 41.129C36.7737 41.0007 36.8246 40.8776 36.9154 40.7869C37.0061 40.6961 37.1292 40.6452 37.2575 40.6452H55.6446C55.773 40.6452 55.896 40.6961 55.9868 40.7869C56.0775 40.8776 56.1285 41.0007 56.1285 41.129V54.1935H36.7737V41.129ZM26.1285 1.93548C29.1729 1.939 32.0945 3.1366 34.2655 5.27094C36.4365 7.40528 37.6837 10.3061 37.739 13.35C35.2083 11.5778 30.5741 10.6452 26.1285 10.6452C21.6829 10.6452 17.0487 11.5778 14.518 13.35C14.5734 10.3061 15.8205 7.40528 17.9915 5.27094C20.1625 3.1366 23.0841 1.939 26.1285 1.93548ZM14.9801 15.4839C16.289 14.0613 20.2966 12.5806 26.1285 12.5806C31.9604 12.5806 35.968 14.0613 37.2769 15.4839H14.9801ZM11.6124 17.4194H12.5801V27.0968H11.6124V17.4194ZM13.064 32.9032C12.6791 32.9029 12.3101 32.7499 12.0379 32.4777C11.7657 32.2055 11.6127 31.8365 11.6124 31.4516V29.0323H12.9914C13.3959 30.4171 14.0274 31.7252 14.8604 32.9032H13.064ZM19.2987 34.8387H22.2575V35.8064C22.2575 36.0631 22.3595 36.3093 22.541 36.4907C22.7225 36.6722 22.9686 36.7742 23.2253 36.7742H29.0317C29.2884 36.7742 29.5345 36.6722 29.716 36.4907C29.8975 36.3093 29.9995 36.0631 29.9995 35.8064V31.9355C29.9995 31.6788 29.8975 31.4327 29.716 31.2512C29.5345 31.0697 29.2884 30.9677 29.0317 30.9677H23.2253C22.9686 30.9677 22.7225 31.0697 22.541 31.2512C22.3595 31.4327 22.2575 31.6788 22.2575 31.9355V32.9032H17.2894C14.9124 30.1524 14.5156 27.5516 14.5156 26.129V17.4194H37.7414V26.129C37.7414 27.7923 37.2019 31.0645 33.5874 34.304C31.2575 36.3931 28.3289 37.7419 26.1285 37.7419C24.1217 37.7419 21.5112 36.6194 19.2987 34.8387ZM24.193 34.8387V32.9032H28.064V34.8387H24.193ZM25.1608 58.0645H8.70915V54.1935C8.70915 53.9369 8.60719 53.6907 8.4257 53.5093C8.24422 53.3278 7.99807 53.2258 7.74141 53.2258C7.48475 53.2258 7.2386 53.3278 7.05711 53.5093C6.87562 53.6907 6.77367 53.9369 6.77367 54.1935V58.0645H1.97125L2.26278 50.2815C2.71081 48.7812 3.55574 47.4299 4.7083 46.3701C5.86087 45.3104 7.27827 44.5817 8.81076 44.2609C8.82219 44.2586 8.83349 44.2558 8.84463 44.2524L14.7309 42.7911L20.1527 41.6685L21.6914 42.5758C22.9664 43.327 24.0817 43.7879 25.1608 43.9621V58.0645ZM22.6737 40.9089L21.2898 40.0923V38.3927C22.9652 39.2165 24.6551 39.6774 26.1285 39.6774C27.6019 39.6774 29.2918 39.2165 30.9672 38.3927V40.0923L29.5833 40.9089C26.8386 42.525 25.4184 42.525 22.6737 40.9089ZM32.9027 55.1613V57.5806C32.9027 57.7431 32.9189 57.9052 32.9511 58.0645H27.0962V43.9621C28.1753 43.7879 29.2906 43.327 30.5656 42.5758L32.1043 41.6685L34.8382 42.2347V54.1935H33.8704C33.6138 54.1935 33.3676 54.2955 33.1861 54.477C33.0047 54.6585 32.9027 54.9046 32.9027 55.1613ZM58.064 57.5806C58.064 57.709 58.013 57.832 57.9223 57.9228C57.8315 58.0135 57.7085 58.0645 57.5801 58.0645H35.3221C35.1937 58.0645 35.0707 58.0135 34.9799 57.9228C34.8892 57.832 34.8382 57.709 34.8382 57.5806V56.129H58.064V57.5806Z" fill="url(#paint3_linear)"/>
<defs>
<linearGradient id="paint0_linear" x1="6.37494" y1="9" x2="34.7768" y2="58.8394" gradientUnits="userSpaceOnUse">
<stop stop-color="white"/>
<stop offset="1" stop-color="#7AF0D1"/>
</linearGradient>
<linearGradient id="paint1_linear" x1="6.37494" y1="9" x2="34.7768" y2="58.8394" gradientUnits="userSpaceOnUse">
<stop stop-color="white"/>
<stop offset="1" stop-color="#7AF0D1"/>
</linearGradient>
<linearGradient id="paint2_linear" x1="6.37494" y1="9" x2="34.7768" y2="58.8394" gradientUnits="userSpaceOnUse">
<stop stop-color="white"/>
<stop offset="1" stop-color="#7AF0D1"/>
</linearGradient>
<linearGradient id="paint3_linear" x1="6.37494" y1="9" x2="34.7768" y2="58.8394" gradientUnits="userSpaceOnUse">
<stop stop-color="white"/>
<stop offset="1" stop-color="#7AF0D1"/>
</linearGradient>
</defs>
</svg>
