<svg width="60" height="60" viewBox="0 0 60 60" fill="none" xmlns="http://www.w3.org/2000/svg">
<path d="M30 54.8738C25.0804 54.8738 20.2713 53.415 16.1809 50.6818C12.0904 47.9486 8.90224 44.0639 7.01961 39.5188C5.13697 34.9737 4.64438 29.9724 5.60414 25.1474C6.5639 20.3223 8.9329 15.8902 12.4116 12.4116C15.8902 8.9329 20.3223 6.5639 25.1474 5.60414C29.9724 4.64438 34.9737 5.13697 39.5188 7.01961C44.0639 8.90224 47.9486 12.0904 50.6818 16.1809C53.415 20.2713 54.8738 25.0804 54.8738 30C54.8665 36.5947 52.2436 42.9172 47.5804 47.5804C42.9172 52.2436 36.5947 54.8665 30 54.8738ZM30 6.84163C25.4197 6.84163 20.9423 8.19985 17.1339 10.7445C13.3255 13.2892 10.3573 16.906 8.60446 21.1377C6.85166 25.3693 6.39304 30.0257 7.28662 34.518C8.18019 39.0103 10.3858 43.1367 13.6246 46.3754C16.8633 49.6142 20.9897 51.8198 25.482 52.7134C29.9743 53.607 34.6307 53.1483 38.8623 51.3955C43.094 49.6427 46.7108 46.6745 49.2555 42.8661C51.8002 39.0577 53.1584 34.5803 53.1584 30C53.1516 23.8601 50.7095 17.9736 46.3679 13.6321C42.0264 9.29052 36.1399 6.84844 30 6.84163Z" fill="url(#paint0_linear)"/>
<path d="M30 60C24.0666 60 18.2664 58.2405 13.3329 54.9441C8.39943 51.6476 4.55426 46.9623 2.28363 41.4805C0.0129985 35.9987 -0.581101 29.9667 0.576455 24.1473C1.73401 18.3279 4.59123 12.9824 8.78681 8.78681C12.9824 4.59123 18.3279 1.73401 24.1473 0.576455C29.9667 -0.581101 35.9987 0.0129985 41.4805 2.28363C46.9623 4.55426 51.6476 8.39943 54.9441 13.3329C58.2405 18.2664 60 24.0666 60 30C59.9912 37.9538 56.8277 45.5793 51.2035 51.2035C45.5793 56.8277 37.9538 59.9912 30 60ZM30 2.06898C24.4758 2.06898 19.0756 3.7071 14.4824 6.77621C9.88912 9.84531 6.30913 14.2075 4.1951 19.3113C2.08107 24.415 1.52794 30.031 2.60567 35.4491C3.68339 40.8672 6.34356 45.844 10.2498 49.7502C14.156 53.6564 19.1328 56.3166 24.5509 57.3943C29.969 58.4721 35.585 57.9189 40.6887 55.8049C45.7925 53.6909 50.1547 50.1109 53.2238 45.5177C56.2929 40.9244 57.931 35.5242 57.931 30C57.9228 22.5948 54.9775 15.4952 49.7412 10.2589C44.5048 5.02256 37.4053 2.07719 30 2.06898Z" fill="url(#paint1_linear)"/>
<path d="M30 11.9879C29.7725 11.9879 29.5544 11.8976 29.3935 11.7367C29.2326 11.5759 29.1423 11.3577 29.1423 11.1302V10.2725C29.1423 10.045 29.2326 9.82686 29.3935 9.66601C29.5544 9.50515 29.7725 9.41479 30 9.41479C30.2275 9.41479 30.4456 9.50515 30.6065 9.66601C30.7674 9.82686 30.8577 10.045 30.8577 10.2725V11.1302C30.8577 11.3577 30.7674 11.5759 30.6065 11.7367C30.4456 11.8976 30.2275 11.9879 30 11.9879Z" fill="url(#paint2_linear)"/>
<path d="M16.6574 17.5151C16.4299 17.515 16.2118 17.4246 16.0509 17.2638L15.4437 16.6565C15.2874 16.4947 15.201 16.2781 15.2029 16.0532C15.2049 15.8283 15.2951 15.6132 15.4541 15.4541C15.6132 15.2951 15.8283 15.2049 16.0532 15.2029C16.2781 15.201 16.4947 15.2874 16.6565 15.4437L17.2638 16.0509C17.3837 16.1709 17.4653 16.3237 17.4984 16.4901C17.5315 16.6564 17.5145 16.8289 17.4496 16.9856C17.3847 17.1423 17.2748 17.2762 17.1338 17.3705C16.9928 17.4647 16.827 17.515 16.6574 17.5151Z" fill="url(#paint3_linear)"/>
<path d="M11.1302 30.8577H10.2725C10.045 30.8577 9.82686 30.7674 9.66601 30.6065C9.50515 30.4456 9.41479 30.2275 9.41479 30C9.41479 29.7725 9.50515 29.5544 9.66601 29.3935C9.82686 29.2326 10.045 29.1423 10.2725 29.1423H11.1302C11.3577 29.1423 11.5759 29.2326 11.7367 29.3935C11.8976 29.5544 11.9879 29.7725 11.9879 30C11.9879 30.2275 11.8976 30.4456 11.7367 30.6065C11.5759 30.7674 11.3577 30.8577 11.1302 30.8577Z" fill="url(#paint4_linear)"/>
<path d="M16.0501 44.8076C15.8805 44.8076 15.7147 44.7573 15.5737 44.663C15.4326 44.5688 15.3227 44.4348 15.2578 44.2781C15.1929 44.1214 15.1759 43.949 15.209 43.7826C15.2421 43.6163 15.3238 43.4635 15.4437 43.3435L16.0501 42.7362C16.2109 42.5753 16.4291 42.4848 16.6566 42.4848C16.8841 42.4847 17.1024 42.575 17.2633 42.7358C17.4243 42.8966 17.5147 43.1148 17.5148 43.3423C17.5149 43.5699 17.4246 43.7881 17.2638 43.9491L16.6574 44.5563C16.5776 44.6361 16.4829 44.6993 16.3787 44.7424C16.2745 44.7856 16.1629 44.8077 16.0501 44.8076Z" fill="url(#paint5_linear)"/>
<path d="M30 50.5852C29.7725 50.5852 29.5544 50.4948 29.3935 50.334C29.2326 50.1731 29.1423 49.955 29.1423 49.7275V48.8698C29.1423 48.6423 29.2326 48.4241 29.3935 48.2633C29.5544 48.1024 29.7725 48.0121 30 48.0121C30.2275 48.0121 30.4456 48.1024 30.6065 48.2633C30.7674 48.4241 30.8577 48.6423 30.8577 48.8698V49.7275C30.8577 49.955 30.7674 50.1731 30.6065 50.334C30.4456 50.4948 30.2275 50.5852 30 50.5852Z" fill="url(#paint6_linear)"/>
<path d="M43.9491 44.8076C43.7216 44.8076 43.5035 44.7172 43.3426 44.5563L42.7362 43.9491C42.5754 43.7881 42.4851 43.5699 42.4852 43.3423C42.4853 43.1148 42.5757 42.8966 42.7367 42.7358C42.8976 42.575 43.1159 42.4847 43.3434 42.4848C43.5709 42.4848 43.7891 42.5753 43.9499 42.7362L44.5563 43.3435C44.6763 43.4635 44.758 43.6164 44.791 43.7828C44.8241 43.9493 44.807 44.1218 44.742 44.2785C44.677 44.4353 44.567 44.5692 44.4258 44.6634C44.2847 44.7576 44.1187 44.8078 43.9491 44.8076Z" fill="url(#paint7_linear)"/>
<path d="M49.7275 30.8577H48.8698C48.6423 30.8577 48.4241 30.7674 48.2633 30.6065C48.1024 30.4456 48.0121 30.2275 48.0121 30C48.0121 29.7725 48.1024 29.5544 48.2633 29.3935C48.4241 29.2326 48.6423 29.1423 48.8698 29.1423H49.7275C49.955 29.1423 50.1731 29.2326 50.334 29.3935C50.4948 29.5544 50.5852 29.7725 50.5852 30C50.5852 30.2275 50.4948 30.4456 50.334 30.6065C50.1731 30.7674 49.955 30.8577 49.7275 30.8577Z" fill="url(#paint8_linear)"/>
<path d="M43.3426 17.5151C43.173 17.515 43.0072 17.4647 42.8662 17.3705C42.7252 17.2762 42.6153 17.1423 42.5504 16.9856C42.4855 16.8289 42.4685 16.6564 42.5016 16.4901C42.5347 16.3237 42.6163 16.1709 42.7362 16.0509L43.3435 15.4437C43.5053 15.2874 43.7219 15.201 43.9468 15.2029C44.1717 15.2049 44.3868 15.2951 44.5459 15.4541C44.7049 15.6132 44.7951 15.8283 44.7971 16.0532C44.799 16.2781 44.7126 16.4947 44.5563 16.6565L43.9491 17.2638C43.7882 17.4246 43.5701 17.515 43.3426 17.5151Z" fill="url(#paint9_linear)"/>
<path d="M25.3091 35.709C25.1395 35.7089 24.9737 35.6586 24.8327 35.5644C24.6917 35.4701 24.5818 35.3362 24.5169 35.1795C24.452 35.0228 24.435 34.8503 24.4681 34.684C24.5012 34.5176 24.5828 34.3648 24.7027 34.2448L29.1423 29.8053V17.1342C29.1423 16.9068 29.2326 16.6886 29.3935 16.5277C29.5544 16.3669 29.7725 16.2765 30 16.2765C30.2275 16.2765 30.4456 16.3669 30.6065 16.5277C30.7674 16.6886 30.8577 16.9068 30.8577 17.1342V30.1613C30.8577 30.3887 30.7673 30.6068 30.6064 30.7677L25.9156 35.4577C25.8361 35.5376 25.7416 35.6009 25.6375 35.6441C25.5334 35.6872 25.4218 35.7093 25.3091 35.709Z" fill="url(#paint10_linear)"/>
<defs>
<linearGradient id="paint0_linear" x1="6.375" y1="9" x2="34.7767" y2="58.8396" gradientUnits="userSpaceOnUse">
<stop stop-color="white"/>
<stop offset="1" stop-color="#7AF0D1"/>
</linearGradient>
<linearGradient id="paint1_linear" x1="6.375" y1="9" x2="34.7767" y2="58.8396" gradientUnits="userSpaceOnUse">
<stop stop-color="white"/>
<stop offset="1" stop-color="#7AF0D1"/>
</linearGradient>
<linearGradient id="paint2_linear" x1="6.375" y1="9" x2="34.7767" y2="58.8396" gradientUnits="userSpaceOnUse">
<stop stop-color="white"/>
<stop offset="1" stop-color="#7AF0D1"/>
</linearGradient>
<linearGradient id="paint3_linear" x1="6.375" y1="9" x2="34.7767" y2="58.8396" gradientUnits="userSpaceOnUse">
<stop stop-color="white"/>
<stop offset="1" stop-color="#7AF0D1"/>
</linearGradient>
<linearGradient id="paint4_linear" x1="6.375" y1="9" x2="34.7767" y2="58.8396" gradientUnits="userSpaceOnUse">
<stop stop-color="white"/>
<stop offset="1" stop-color="#7AF0D1"/>
</linearGradient>
<linearGradient id="paint5_linear" x1="6.375" y1="9" x2="34.7767" y2="58.8396" gradientUnits="userSpaceOnUse">
<stop stop-color="white"/>
<stop offset="1" stop-color="#7AF0D1"/>
</linearGradient>
<linearGradient id="paint6_linear" x1="6.375" y1="9" x2="34.7767" y2="58.8396" gradientUnits="userSpaceOnUse">
<stop stop-color="white"/>
<stop offset="1" stop-color="#7AF0D1"/>
</linearGradient>
<linearGradient id="paint7_linear" x1="6.375" y1="9" x2="34.7767" y2="58.8396" gradientUnits="userSpaceOnUse">
<stop stop-color="white"/>
<stop offset="1" stop-color="#7AF0D1"/>
</linearGradient>
<linearGradient id="paint8_linear" x1="6.375" y1="9" x2="34.7767" y2="58.8396" gradientUnits="userSpaceOnUse">
<stop stop-color="white"/>
<stop offset="1" stop-color="#7AF0D1"/>
</linearGradient>
<linearGradient id="paint9_linear" x1="6.375" y1="9" x2="34.7767" y2="58.8396" gradientUnits="userSpaceOnUse">
<stop stop-color="white"/>
<stop offset="1" stop-color="#7AF0D1"/>
</linearGradient>
<linearGradient id="paint10_linear" x1="6.375" y1="9" x2="34.7767" y2="58.8396" gradientUnits="userSpaceOnUse">
<stop stop-color="white"/>
<stop offset="1" stop-color="#7AF0D1"/>
</linearGradient>
</defs>
</svg>
