<svg width="78" height="60" viewBox="0 0 78 60" fill="none" xmlns="http://www.w3.org/2000/svg">
<path d="M57.1948 36.4947H59.8365C60.4675 36.4947 60.9791 37.0085 60.9791 37.6426C60.9791 38.2768 60.4675 38.7906 59.8365 38.7906H57.1948C56.5638 38.7906 56.0523 38.2768 56.0523 37.6426C56.0523 37.0085 56.5638 36.4947 57.1948 36.4947Z" fill="url(#paint0_linear)"/>
<path d="M33.195 18.7413C33.826 18.7413 34.3376 18.2274 34.3376 17.5933C34.3376 16.9592 33.826 16.4453 33.195 16.4453H28.6274C27.9964 16.4453 27.4848 16.9592 27.4848 17.5933V26.7744C27.4848 27.4086 27.9964 27.9224 28.6274 27.9224H33.195C33.826 27.9224 34.3376 27.4086 34.3376 26.7744C34.3376 26.1403 33.826 25.6265 33.195 25.6265H29.77V23.3319H33.195C33.826 23.3319 34.3376 22.8181 34.3376 22.1839C34.3376 21.5498 33.826 21.036 33.195 21.036H29.77V18.7413H33.195Z" fill="url(#paint1_linear)"/>
<path d="M43.3232 17.5933C43.3232 18.2274 42.8116 18.7413 42.1806 18.7413H38.7556V21.036H42.1806C42.8116 21.036 43.3232 21.5498 43.3232 22.1839C43.3232 22.8181 42.8116 23.3319 42.1806 23.3319H38.7556V25.6265H42.1806C42.8116 25.6265 43.3232 26.1403 43.3232 26.7744C43.3232 27.4086 42.8116 27.9224 42.1806 27.9224H37.613C36.982 27.9224 36.4704 27.4086 36.4704 26.7744V17.5933C36.4704 16.9592 36.982 16.4453 37.613 16.4453H42.1806C42.8116 16.4453 43.3232 16.9592 43.3232 17.5933Z" fill="url(#paint2_linear)"/>
<path d="M15.3735 18.7413C16.0045 18.7413 16.5161 18.2274 16.5161 17.5933C16.5161 16.9592 16.0045 16.4453 15.3735 16.4453H10.8059C10.1749 16.4453 9.66334 16.9592 9.66334 17.5933V26.7744C9.66334 27.4086 10.1749 27.9224 10.8059 27.9224C11.4369 27.9224 11.9485 27.4086 11.9485 26.7744V23.3319H15.3735C16.0045 23.3319 16.5161 22.8181 16.5161 22.1839C16.5161 21.5498 16.0045 21.036 15.3735 21.036H11.9485V18.7413H15.3735Z" fill="url(#paint3_linear)"/>
<path fill-rule="evenodd" clip-rule="evenodd" d="M25.352 17.5935V22.1841C25.352 22.8181 24.8405 23.3321 24.2095 23.3321H23.2978L25.1601 26.1377C25.5102 26.6651 25.3683 27.3778 24.8434 27.7297C24.6485 27.8603 24.4284 27.9227 24.2105 27.9227C23.8412 27.9227 23.479 27.7433 23.2588 27.4115L20.7845 23.6835V26.7746C20.7845 27.4087 20.2729 27.9225 19.6419 27.9225C19.0109 27.9225 18.4993 27.4087 18.4993 26.7746V17.5935C18.4993 16.9593 19.0109 16.4455 19.6419 16.4455H24.2095C24.8405 16.4455 25.352 16.9593 25.352 17.5935ZM20.7845 21.0361H23.0669V18.7414H20.7845V21.0361Z" fill="url(#paint4_linear)"/>
<path fill-rule="evenodd" clip-rule="evenodd" d="M73.6868 30.5287H67.1296V12.7277C67.1296 10.3591 65.2116 8.43219 62.8543 8.43219H52.9868V4.16451C52.9868 1.86812 51.1273 0 48.8418 0H4.14498C1.85951 0 0 1.86812 0 4.16451V6.0008V50.2962C0 52.5926 1.85951 54.4607 4.14498 54.4607H6.77078C7.34527 57.6076 10.0951 59.9998 13.3907 59.9998C16.6864 59.9998 19.4362 57.6076 20.0107 54.4607L42.6 54.4959L58.2451 54.4608C58.8196 57.6078 61.5694 60 64.8649 60C68.1604 60 70.9104 57.6078 71.4849 54.4608H73.7246C76.0821 54.4608 78 52.5338 78 50.1653V34.8625C78.0002 32.4727 76.0652 30.5287 73.6868 30.5287ZM42.6 52.2L50.7015 52.1649V42.6157H2.28516V50.2963C2.28516 51.3266 3.11955 52.1649 4.14498 52.1649H6.74519C7.25843 48.9445 10.0428 46.4759 13.3906 46.4759C16.7383 46.4759 19.5229 48.9443 20.0361 52.1648L42.6 52.2ZM2.28516 6.0008V40.3197H50.7015V4.16451C50.7015 3.13425 49.8671 2.29593 48.8417 2.29593H4.14498C3.11955 2.29593 2.28516 3.13425 2.28516 4.16451V6.0008ZM17.8357 53.238C17.8357 50.7754 15.8417 48.772 13.3906 48.772C10.9397 48.772 8.94549 50.7754 8.94549 53.238C8.94549 55.7006 10.9395 57.7042 13.3906 57.7042C15.8417 57.7042 17.8357 55.7006 17.8357 53.238ZM60.42 53.2379C60.42 55.7005 62.414 57.7041 64.8651 57.7041C67.3161 57.7041 69.3102 55.7005 69.3102 53.2379C69.3102 50.7753 67.3161 48.7718 64.8651 48.7718C62.414 48.7718 60.42 50.7753 60.42 53.2379ZM72.6744 41.0866H75.715V38.7907H72.6744C72.0443 38.7907 71.5318 39.3056 71.5318 39.9386C71.5318 40.5717 72.0444 41.0866 72.6744 41.0866ZM72.6744 36.4947H75.7148V34.8623C75.7148 33.7388 74.805 32.8246 73.6867 32.8246H57.1947C56.5637 32.8246 56.0521 32.3108 56.0521 31.6766V14.1431C56.0521 13.5089 56.5637 12.9951 57.1947 12.9951H64.8443V12.7277C64.8443 11.6251 63.9516 10.7281 62.8541 10.7281H52.9866V52.1648H58.2197C58.7329 48.9443 61.5173 46.4759 64.8651 46.4759C68.2128 46.4759 70.9974 48.9443 71.5106 52.1648H73.7248C74.8221 52.1648 75.715 51.2678 75.715 50.1652V43.3825H72.6744C70.7842 43.3825 69.2466 41.8375 69.2466 39.9386C69.2466 38.0397 70.7844 36.4947 72.6744 36.4947ZM64.8445 30.5287V15.291H58.3374V30.5287H64.8445Z" fill="url(#paint5_linear)"/>
<path fill-rule="evenodd" clip-rule="evenodd" d="M34.3376 17.5933C34.3376 18.2274 33.826 18.7413 33.195 18.7413H29.77V21.036H33.195C33.826 21.036 34.3376 21.5498 34.3376 22.1839C34.3376 22.8181 33.826 23.3319 33.195 23.3319H29.77V25.6265H33.195C33.826 25.6265 34.3376 26.1403 34.3376 26.7744C34.3376 27.4086 33.826 27.9224 33.195 27.9224H28.6274C27.9964 27.9224 27.4848 27.4086 27.4848 26.7744V17.5933C27.4848 16.9592 27.9964 16.4453 28.6274 16.4453H33.195C33.826 16.4453 34.3376 16.9592 34.3376 17.5933ZM42.1806 18.7413C42.8116 18.7413 43.3232 18.2274 43.3232 17.5933C43.3232 16.9592 42.8116 16.4453 42.1806 16.4453H37.613C36.982 16.4453 36.4704 16.9592 36.4704 17.5933V26.7744C36.4704 27.4086 36.982 27.9224 37.613 27.9224H42.1806C42.8116 27.9224 43.3232 27.4086 43.3232 26.7744C43.3232 26.1403 42.8116 25.6265 42.1806 25.6265H38.7556V23.3319H42.1806C42.8116 23.3319 43.3232 22.8181 43.3232 22.1839C43.3232 21.5498 42.8116 21.036 42.1806 21.036H38.7556V18.7413H42.1806ZM16.5161 17.5933C16.5161 18.2274 16.0045 18.7413 15.3735 18.7413H11.9485V21.036H15.3735C16.0045 21.036 16.5161 21.5498 16.5161 22.1839C16.5161 22.8181 16.0045 23.3319 15.3735 23.3319H11.9485V26.7744C11.9485 27.4086 11.4369 27.9224 10.8059 27.9224C10.1749 27.9224 9.66334 27.4086 9.66334 26.7744V17.5933C9.66334 16.9592 10.1749 16.4453 10.8059 16.4453H15.3735C16.0045 16.4453 16.5161 16.9592 16.5161 17.5933ZM25.352 22.1841V17.5935C25.352 16.9593 24.8405 16.4455 24.2095 16.4455H19.6419C19.0109 16.4455 18.4993 16.9593 18.4993 17.5935V26.7746C18.4993 27.4087 19.0109 27.9225 19.6419 27.9225C20.2729 27.9225 20.7845 27.4087 20.7845 26.7746V23.6835L23.2588 27.4115C23.479 27.7433 23.8412 27.9227 24.2105 27.9227C24.4284 27.9227 24.6485 27.8603 24.8434 27.7297C25.3683 27.3778 25.5102 26.6651 25.1601 26.1377L23.2978 23.3321H24.2095C24.8405 23.3321 25.352 22.8181 25.352 22.1841ZM57.1948 36.4947H59.8365C60.4675 36.4947 60.9791 37.0085 60.9791 37.6426C60.9791 38.2768 60.4675 38.7906 59.8365 38.7906H57.1948C56.5638 38.7906 56.0523 38.2768 56.0523 37.6426C56.0523 37.0085 56.5638 36.4947 57.1948 36.4947ZM20.7845 21.0361H23.0669V18.7414H20.7845V21.0361Z" fill="url(#paint6_linear)"/>
<defs>
<linearGradient id="paint0_linear" x1="8.2875" y1="9" x2="32.5648" y2="64.3826" gradientUnits="userSpaceOnUse">
<stop stop-color="white"/>
<stop offset="1" stop-color="#7AF0D1"/>
</linearGradient>
<linearGradient id="paint1_linear" x1="8.2875" y1="9" x2="32.5648" y2="64.3826" gradientUnits="userSpaceOnUse">
<stop stop-color="white"/>
<stop offset="1" stop-color="#7AF0D1"/>
</linearGradient>
<linearGradient id="paint2_linear" x1="8.2875" y1="9" x2="32.5648" y2="64.3826" gradientUnits="userSpaceOnUse">
<stop stop-color="white"/>
<stop offset="1" stop-color="#7AF0D1"/>
</linearGradient>
<linearGradient id="paint3_linear" x1="8.2875" y1="9" x2="32.5648" y2="64.3826" gradientUnits="userSpaceOnUse">
<stop stop-color="white"/>
<stop offset="1" stop-color="#7AF0D1"/>
</linearGradient>
<linearGradient id="paint4_linear" x1="8.2875" y1="9" x2="32.5648" y2="64.3826" gradientUnits="userSpaceOnUse">
<stop stop-color="white"/>
<stop offset="1" stop-color="#7AF0D1"/>
</linearGradient>
<linearGradient id="paint5_linear" x1="8.2875" y1="9" x2="32.5648" y2="64.3826" gradientUnits="userSpaceOnUse">
<stop stop-color="white"/>
<stop offset="1" stop-color="#7AF0D1"/>
</linearGradient>
<linearGradient id="paint6_linear" x1="8.2875" y1="9" x2="32.5648" y2="64.3826" gradientUnits="userSpaceOnUse">
<stop stop-color="white"/>
<stop offset="1" stop-color="#7AF0D1"/>
</linearGradient>
</defs>
</svg>
