<svg width="68" height="60" viewBox="0 0 68 60" fill="none" xmlns="http://www.w3.org/2000/svg">
<path d="M63.7284 27.4278L65.288 25.8805C65.498 25.6721 65.7829 25.5556 66.08 25.5556C66.377 25.5556 66.6619 25.6726 66.872 25.881C67.082 26.0894 67.2 26.3721 67.2 26.6668C67.2 26.9615 67.082 27.2441 66.872 27.4525L63.512 30.7861C63.408 30.8893 63.2845 30.9712 63.1486 31.027C63.0127 31.0829 62.8671 31.1116 62.72 31.1116C62.5729 31.1116 62.4273 31.0829 62.2914 31.027C62.1555 30.9712 62.032 30.8893 61.928 30.7861L58.568 27.4525C58.464 27.3493 58.3815 27.2268 58.3252 27.092C58.2689 26.9572 58.24 26.8127 58.24 26.6668C58.24 26.5208 58.2689 26.3763 58.3252 26.2415C58.3815 26.1067 58.464 25.9842 58.568 25.881C58.672 25.7778 58.7955 25.696 58.9314 25.6401C59.0673 25.5843 59.2129 25.5556 59.36 25.5556C59.5071 25.5556 59.6527 25.5843 59.7886 25.6401C59.9245 25.696 60.048 25.7778 60.152 25.881L61.4565 27.1754C60.7637 20.4575 57.6286 14.2199 52.6371 9.62874C47.6457 5.03761 41.1397 2.40731 34.3356 2.2296C27.5315 2.05189 20.8951 4.33894 15.6671 8.66316C10.4391 12.9874 6.97748 19.0527 5.92945 25.7252C5.88411 26.0164 5.72401 26.2779 5.48437 26.4521C5.24473 26.6262 4.94517 26.6988 4.6516 26.6538C4.35803 26.6088 4.09449 26.45 3.91896 26.2122C3.74343 25.9745 3.67029 25.6772 3.71563 25.386C4.8536 18.1391 8.62751 11.5567 14.3243 6.88252C20.021 2.20838 27.2461 -0.233725 34.6341 0.0176411C42.0222 0.269007 49.0617 3.19644 54.4223 8.24678C59.7829 13.2971 63.0935 20.1206 63.7284 27.4278Z" fill="url(#paint0_linear)"/>
<path d="M3.47203 32.5721L1.91201 34.1191C1.808 34.2223 1.68453 34.3042 1.54864 34.36C1.41276 34.4159 1.26711 34.4446 1.12003 34.4446C0.972944 34.4446 0.8273 34.4159 0.691412 34.36C0.555524 34.3042 0.432053 34.2223 0.328049 34.1191C0.224044 34.0159 0.141544 33.8934 0.0852572 33.7586C0.0289705 33.6238 0 33.4793 0 33.3334C0 33.1874 0.0289705 33.0429 0.0852572 32.9081C0.141544 32.7733 0.224044 32.6508 0.328049 32.5476L3.68805 29.214C3.79205 29.1108 3.91552 29.029 4.05141 28.9731C4.18729 28.9173 4.33294 28.8885 4.48002 28.8885C4.62711 28.8885 4.77276 28.9173 4.90864 28.9731C5.04453 29.029 5.168 29.1108 5.272 29.214L8.632 32.5476C8.84205 32.756 8.96005 33.0387 8.96005 33.3334C8.96005 33.6281 8.84205 33.9107 8.632 34.1191C8.42196 34.3275 8.13707 34.4446 7.84002 34.4446C7.54297 34.4446 7.25809 34.3275 7.04804 34.1191L5.7445 32.8257C6.43668 39.5441 9.57166 45.7823 14.5632 50.3739C19.5548 54.9654 26.0612 57.5959 32.8657 57.7735C39.6702 57.9511 46.307 55.6635 51.5349 51.3387C56.7629 47.0138 60.2241 40.9477 61.2713 34.2747C61.3166 33.9834 61.4767 33.722 61.7163 33.5478C61.956 33.3737 62.2555 33.3011 62.5491 33.3461C62.8427 33.3911 63.1062 33.5499 63.2817 33.7877C63.4573 34.0254 63.5304 34.3226 63.4851 34.6139C62.3471 41.8608 58.5732 48.4433 52.8764 53.1175C47.1796 57.7916 39.9546 60.2337 32.5664 59.9824C25.1783 59.731 18.1388 56.8035 12.7782 51.7532C7.41751 46.7028 4.10694 39.8793 3.47203 32.5721Z" fill="url(#paint1_linear)"/>
<path d="M26.088 35.8813C26.2981 35.6729 26.583 35.5558 26.88 35.5558H29.12C29.417 35.5558 29.7019 35.6729 29.912 35.8813C30.122 36.0896 30.24 36.3723 30.24 36.667C30.24 36.9617 30.122 37.2443 29.912 37.4527C29.7019 37.6611 29.417 37.7782 29.12 37.7782H26.88C26.583 37.7782 26.2981 37.6611 26.088 37.4527C25.878 37.2443 25.76 36.9617 25.76 36.667C25.76 36.3723 25.878 36.0896 26.088 35.8813Z" fill="url(#paint2_linear)"/>
<path d="M32.48 36.667C32.48 36.9617 32.598 37.2443 32.808 37.4527C33.0181 37.6611 33.303 37.7782 33.6 37.7782H34.72C35.017 37.7782 35.3019 37.6611 35.512 37.4527C35.722 37.2443 35.84 36.9617 35.84 36.667C35.84 36.3723 35.722 36.0896 35.512 35.8813C35.3019 35.6729 35.017 35.5558 34.72 35.5558H33.6C33.303 35.5558 33.0181 35.6729 32.808 35.8813C32.598 36.0896 32.48 36.3723 32.48 36.667Z" fill="url(#paint3_linear)"/>
<path fill-rule="evenodd" clip-rule="evenodd" d="M39.9154 41.9666L39.9171 41.9655C39.9171 41.9655 46.6722 36.3788 46.6869 36.3642C46.7984 36.2606 46.8872 36.1354 46.948 35.9963C47.0087 35.8573 47.04 35.7073 47.04 35.5558C47.04 35.5558 47.0134 18.6362 46.992 18.5659C46.9223 18.3376 46.7805 18.1376 46.5874 17.9955C46.3944 17.8534 46.1604 17.7766 45.92 17.7766H28C27.7789 17.7766 27.5626 17.8416 27.3787 17.9633L20.6587 22.4081C20.5228 22.4985 20.4085 22.6175 20.3241 22.7566C20.2396 22.8956 20.187 23.0514 20.1699 23.2129C20.1669 23.2307 20.1649 23.2512 20.1634 23.2726C20.1634 23.2764 20.1632 23.2801 20.163 23.2839C20.1628 23.2873 20.1625 23.2907 20.1622 23.2942L20.1619 23.298L20.1616 23.3027L20.1615 23.3053L20.1612 23.3104L20.1611 23.3143C20.1611 23.3182 20.1608 23.3215 20.1604 23.325L20.1601 23.3293L20.16 23.3308L20.16 23.3332V41.1118C20.16 41.4065 20.278 41.6891 20.488 41.8975C20.6981 42.1059 20.983 42.223 21.28 42.223H39.2C39.4614 42.2233 39.7146 42.1326 39.9154 41.9666ZM44.8 35.0355L40.32 38.7394V23.9273L44.8 20.9641V35.0355ZM38.08 40.0006H22.4V24.4438H26.88V31.111C26.88 31.4057 26.998 31.6884 27.208 31.8967C27.4181 32.1051 27.703 32.2222 28 32.2222H32.48C32.777 32.2222 33.0619 32.1051 33.272 31.8967C33.482 31.6884 33.6 31.4057 33.6 31.111V24.4438H38.08V40.0006ZM29.12 29.9998V24.4438H31.36V29.9998H29.12ZM24.9791 22.2214L28.3391 19.999H42.2209L38.8609 22.2214H24.9791Z" fill="url(#paint4_linear)"/>
<path d="M34.72 47.779C34.72 48.3927 34.2186 48.8902 33.6 48.8902C32.9814 48.8902 32.48 48.3927 32.48 47.779C32.48 47.1653 32.9814 46.6678 33.6 46.6678C34.2186 46.6678 34.72 47.1653 34.72 47.779Z" fill="url(#paint5_linear)"/>
<path d="M29.12 46.6678C28.5014 46.6678 28 47.1653 28 47.779C28 48.3927 28.5014 48.8902 29.12 48.8902C29.7386 48.8902 30.24 48.3927 30.24 47.779C30.24 47.1653 29.7386 46.6678 29.12 46.6678Z" fill="url(#paint6_linear)"/>
<path d="M39.2 47.779C39.2 48.3927 38.6986 48.8902 38.08 48.8902C37.4614 48.8902 36.96 48.3927 36.96 47.779C36.96 47.1653 37.4614 46.6678 38.08 46.6678C38.6986 46.6678 39.2 47.1653 39.2 47.779Z" fill="url(#paint7_linear)"/>
<defs>
<linearGradient id="paint0_linear" x1="7.14" y1="9" x2="33.8254" y2="61.447" gradientUnits="userSpaceOnUse">
<stop stop-color="white"/>
<stop offset="1" stop-color="#7AF0D1"/>
</linearGradient>
<linearGradient id="paint1_linear" x1="7.14" y1="9" x2="33.8254" y2="61.447" gradientUnits="userSpaceOnUse">
<stop stop-color="white"/>
<stop offset="1" stop-color="#7AF0D1"/>
</linearGradient>
<linearGradient id="paint2_linear" x1="7.14" y1="9" x2="33.8254" y2="61.447" gradientUnits="userSpaceOnUse">
<stop stop-color="white"/>
<stop offset="1" stop-color="#7AF0D1"/>
</linearGradient>
<linearGradient id="paint3_linear" x1="7.14" y1="9" x2="33.8254" y2="61.447" gradientUnits="userSpaceOnUse">
<stop stop-color="white"/>
<stop offset="1" stop-color="#7AF0D1"/>
</linearGradient>
<linearGradient id="paint4_linear" x1="7.14" y1="9" x2="33.8254" y2="61.447" gradientUnits="userSpaceOnUse">
<stop stop-color="white"/>
<stop offset="1" stop-color="#7AF0D1"/>
</linearGradient>
<linearGradient id="paint5_linear" x1="7.14" y1="9" x2="33.8254" y2="61.447" gradientUnits="userSpaceOnUse">
<stop stop-color="white"/>
<stop offset="1" stop-color="#7AF0D1"/>
</linearGradient>
<linearGradient id="paint6_linear" x1="7.14" y1="9" x2="33.8254" y2="61.447" gradientUnits="userSpaceOnUse">
<stop stop-color="white"/>
<stop offset="1" stop-color="#7AF0D1"/>
</linearGradient>
<linearGradient id="paint7_linear" x1="7.14" y1="9" x2="33.8254" y2="61.447" gradientUnits="userSpaceOnUse">
<stop stop-color="white"/>
<stop offset="1" stop-color="#7AF0D1"/>
</linearGradient>
</defs>
</svg>
