<svg width="64" height="60" viewBox="0 0 64 60" fill="none" xmlns="http://www.w3.org/2000/svg">
<path d="M11.6302 48.7409C11.4418 48.7408 11.2572 48.6878 11.0979 48.5881C10.9385 48.4884 10.8107 48.346 10.7293 48.1773C10.6479 48.0087 10.6162 47.8207 10.6378 47.6349C10.6594 47.4491 10.7334 47.2732 10.8513 47.1274L20.1373 35.6608C20.2274 35.5494 20.3408 35.4587 20.4695 35.3948C20.5982 35.331 20.7393 35.2954 20.8831 35.2906C21.0256 35.2864 21.1673 35.3118 21.2992 35.3653C21.4312 35.4188 21.5503 35.4992 21.649 35.6012L25.2652 39.4098L31.3808 29.033C31.4631 28.8934 31.5785 28.776 31.717 28.6908C31.8554 28.6056 32.0128 28.5553 32.1753 28.5443C32.3378 28.5332 32.5006 28.5618 32.6494 28.6274C32.7983 28.693 32.9288 28.7937 33.0295 28.9208L36.2288 32.9497L40.2169 13.6984C40.2531 13.5239 40.3359 13.3623 40.4567 13.2306C40.5774 13.0988 40.7317 13.0018 40.9033 12.9496C41.0749 12.8974 41.2575 12.8921 41.4319 12.9341C41.6063 12.9761 41.7661 13.0639 41.8945 13.1883L47.9362 19.0431L54.2228 10.7799C54.3819 10.5694 54.6188 10.4302 54.8812 10.393C55.1437 10.3557 55.4104 10.4235 55.6225 10.5815C55.8346 10.7394 55.9749 10.9744 56.0124 11.235C56.0499 11.4955 55.9816 11.7602 55.8225 11.9707L48.858 21.133C48.7725 21.2455 48.6638 21.3387 48.5391 21.4063C48.4145 21.4739 48.2768 21.5143 48.1352 21.5249C47.9939 21.5345 47.8521 21.5146 47.719 21.4666C47.5859 21.4186 47.4644 21.3435 47.3623 21.2461L41.8175 15.8756L37.7594 35.4405C37.7208 35.6255 37.6298 35.7957 37.4972 35.9311C37.3645 36.0665 37.1956 36.1615 37.0104 36.205C36.8252 36.2484 36.6314 36.2385 36.4516 36.1764C36.2719 36.1143 36.1138 36.0025 35.9958 35.8543L32.3706 31.2895L26.3119 41.5573C26.2335 41.6904 26.1249 41.8036 25.9947 41.8878C25.8645 41.972 25.7163 42.0249 25.5619 42.0423C25.4075 42.0597 25.2512 42.0412 25.1052 41.9882C24.9593 41.9352 24.8279 41.8491 24.7213 41.7369L20.9761 37.7923L12.41 48.3708C12.3162 48.4865 12.1974 48.5798 12.0625 48.6438C11.9275 48.7079 11.7798 48.7411 11.6302 48.7409Z" fill="url(#paint0_linear)"/>
<path d="M5.9864 55.0383L45.2058 55.0383H60.1868L56.8945 58.3061C56.7547 58.4449 56.6595 58.6217 56.6209 58.8141C56.5824 59.0066 56.6022 59.2061 56.6778 59.3874C56.7535 59.5687 56.8816 59.7236 57.046 59.8327C57.2104 59.9417 57.4036 60 57.6013 60C57.8664 59.9999 58.1207 59.8953 58.3082 59.7092L63.2961 54.7585L63.302 54.7527L63.3072 54.7476C63.4947 54.5615 63.6 54.3091 63.6 54.0459C63.6 53.7827 63.4947 53.5303 63.3072 53.3442L63.2935 53.3309L58.3082 48.3827C58.1196 48.2019 57.8671 48.1019 57.6049 48.1042C57.3428 48.1064 57.092 48.2108 56.9067 48.3948C56.7213 48.5788 56.6161 48.8277 56.6139 49.0878C56.6116 49.348 56.7124 49.5987 56.8945 49.7859L60.1867 53.0536L45.2058 53.0536L6.98618 53.0536V3.38784L10.2785 6.65561C10.4659 6.84172 10.7202 6.94631 10.9853 6.94636C11.183 6.94632 11.3763 6.8881 11.5406 6.77906C11.705 6.67001 11.8331 6.51505 11.9088 6.33375C11.9844 6.15245 12.0042 5.95295 11.9657 5.76049C11.9271 5.56802 11.8319 5.39122 11.6921 5.25244L6.70552 0.30294L6.69335 0.290649C6.50586 0.10455 6.25156 0 5.9864 0C5.72124 0 5.46694 0.10455 5.27945 0.290649L5.26734 0.302875L0.28065 5.25244C0.0985321 5.4396 -0.00224013 5.69027 3.77944e-05 5.95045C0.00231571 6.21064 0.107462 6.45953 0.292829 6.64352C0.478196 6.82751 0.728954 6.93187 0.991093 6.93413C1.25323 6.93639 1.50578 6.83637 1.69434 6.65561L4.98662 3.38784V54.046C4.98662 54.3092 5.09195 54.5616 5.27945 54.7477C5.46694 54.9338 5.72124 55.0383 5.9864 55.0383Z" fill="url(#paint1_linear)"/>
<defs>
<linearGradient id="paint0_linear" x1="6.7575" y1="9" x2="34.2941" y2="60.2208" gradientUnits="userSpaceOnUse">
<stop stop-color="white"/>
<stop offset="1" stop-color="#7AF0D1"/>
</linearGradient>
<linearGradient id="paint1_linear" x1="6.7575" y1="9" x2="34.2941" y2="60.2208" gradientUnits="userSpaceOnUse">
<stop stop-color="white"/>
<stop offset="1" stop-color="#7AF0D1"/>
</linearGradient>
</defs>
</svg>
