<svg width="28" height="28" viewBox="0 0 28 28" fill="none" xmlns="http://www.w3.org/2000/svg">
<path fill-rule="evenodd" clip-rule="evenodd" d="M13.4562 0C6.02453 0 0 5.89147 0 13.159C0 20.4265 6.02453 26.3179 13.4562 26.3179C16.6346 26.3179 19.5557 25.2402 21.8582 23.4381L26.2319 27.7041L26.3482 27.8021C26.7543 28.0959 27.33 28.0625 27.6974 27.7022C28.1016 27.306 28.1007 26.6643 27.6955 26.2691L23.3733 22.0532C25.5709 19.7111 26.9123 16.5882 26.9123 13.159C26.9123 5.89147 20.8878 0 13.4562 0ZM13.4562 2.02683C19.7431 2.02683 24.8397 7.01086 24.8397 13.159C24.8397 19.3071 19.7431 24.2911 13.4562 24.2911C7.1692 24.2911 2.07261 19.3071 2.07261 13.159C2.07261 7.01086 7.1692 2.02683 13.4562 2.02683Z" fill="#7AF0D1"/>
</svg>
